<svg id="iconCreate" xmlns="http://www.w3.org/2000/svg" viewBox="0 0 200 200">
	 <path d="M120.784,171.935c-2.788-2.05-3.084-5.128-3.084-5.128l-1.045-6.683H83.341l-1.046,6.679c0,0-0.291,3.082-3.079,5.132 c-2.786,2.049-4.984,3.808-2.786,4.106c2.118,0.285,22.098,0.023,23.57,0c1.477,0.023,21.449,0.285,23.569,0 C125.765,175.744,123.565,173.989,120.784,171.935z" />
            <path d="M62.474,118.556c8.899-0.068,10.008-2.215,12.908-11.146c5.352-14.103,29.445,3.69,14.514,9.864 C74.964,123.452,53.573,118.624,62.474,118.556z" />
            <path d="M153.731,25.629c-4.32-3.48-11.473-1.767-15.979,3.827L92.09,94.325c-4.509,5.592-4.486,4.524-0.167,8.001 c4.319,3.48,3.279,3.732,7.786-1.862l53.677-58.406C157.894,36.462,158.049,29.107,153.731,25.629z M141.992,33.393 c0,0-0.67-0.776-2.894-2.555c3.335-5.447,9.89-4.448,9.89-4.448C142.77,30.059,141.992,33.393,141.992,33.393z" />
            <path d="M173.978,47.549h-20.079l-8.867,9.649h25.732v77.194H29.24V57.198h82.328l6.796-9.649H26.022 c-3.553,0-6.433,2.88-6.433,6.432v93.277c0,3.552,2.88,6.434,6.433,6.434h147.956c3.554,0,6.434-2.882,6.434-6.434V53.981 C180.411,50.429,177.531,47.549,173.978,47.549z" />
</svg>