<svg id="ionUse" xmlns="http://www.w3.org/2000/svg" viewBox="0 0 200 200">
	 <path d="M86.755,113.607v9.824l-34.921-15.138v-8.4l34.921-15.135v9.894l-24.332,9.375L86.755,113.607z" />
            <path d="M108.349,84.55l-9.723,40.026c-0.323,1.317-0.605,2.36-0.849,3.124c-0.243,0.765-0.611,1.362-1.109,1.786 c-0.498,0.429-1.221,0.643-2.171,0.643c-2.358,0-3.54-1.021-3.54-3.054c0-0.533,0.231-1.863,0.694-3.992l9.686-40.027 c0.51-2.128,0.995-3.586,1.458-4.372c0.462-0.787,1.364-1.181,2.708-1.181c1.157,0,2.043,0.278,2.654,0.834 c0.613,0.556,0.921,1.32,0.921,2.291C109.078,81.345,108.833,82.653,108.349,84.55z" />
            <path d="M148.166,108.294L113.245,123.5v-9.824l24.404-9.58l-24.404-9.444v-9.754l34.921,15.065V108.294z" />
            <path d="M170.644,28.356H29.356c-5.319,0-9.633,4.315-9.633,9.634v122.021c0,5.317,4.314,9.633,9.633,9.633h141.288 c5.321,0,9.633-4.315,9.633-9.633V37.99C180.276,32.669,175.965,28.356,170.644,28.356z M146.561,34.779 c3.54,0,6.423,2.88,6.423,6.422c0,3.542-2.883,6.421-6.423,6.421c-3.541,0-6.422-2.88-6.422-6.421 C140.139,37.659,143.02,34.779,146.561,34.779z M128.9,34.779c3.539,0,6.421,2.88,6.421,6.422c0,3.542-2.882,6.421-6.421,6.421 c-3.541,0-6.423-2.88-6.423-6.421C122.478,37.659,125.359,34.779,128.9,34.779z M170.644,160.011H29.356V54.045h141.288V160.011z M164.222,47.623c-3.54,0-6.423-2.88-6.423-6.421c0-3.542,2.883-6.422,6.423-6.422c3.539,0,6.422,2.88,6.422,6.422 C170.644,44.743,167.761,47.623,164.222,47.623z" />
</svg>