<svg id="ionTopics" xmlns="http://www.w3.org/2000/svg" viewBox="0 0 200 200">
	  <path d="M100,18.589c-44.338,0-80.411,36.073-80.411,80.411c0,44.34,36.073,80.411,80.411,80.411 c44.34,0,80.411-36.071,80.411-80.411C180.411,54.662,144.34,18.589,100,18.589z M104.825,169.58v-12.685h-9.649v12.685 c-35.179-2.384-63.372-30.577-65.754-65.755h12.683v-9.65H29.421c2.382-35.179,30.575-63.372,65.754-65.754v12.683h9.649V28.421 c35.178,2.382,63.371,30.575,65.755,65.754h-12.685v9.65h12.685C168.196,139.003,140.003,167.196,104.825,169.58z" />
            <path d="M66.291,114.313c4.977-3.304,10.503-5.287,15.847-7.052c0.77-0.251,1.535-0.591,2.299-0.844l0.157-0.099 c1.131-0.396,2.201-0.789,3.075-1.268c0.04-0.097,0.097-0.262,0.166-0.517c-4.398-6.422-7.391-16.354-7.391-24.86 c0-7.214,2.268-12.565,6.542-15.818c-1.847-0.937-4.079-1.294-6.479-1.294c-6.396,0-11.579,2.553-11.579,11.727 c0,6.091,2.283,13.562,5.691,17.899c-0.034,0.342-0.072,0.686-0.135,1.026c-0.204,0.934-0.527,1.977-1.401,2.496 c-0.975,0.58-2.063,0.948-3.131,1.321c-4.429,1.492-9.012,2.805-12.94,5.418c-2.045,1.345-3.431,4.021-4.193,6.313 c-0.788,2.384-1.111,4.712-1.061,7.928h12.078C64.603,115.082,65.42,114.882,66.291,114.313z" />
            <path d="M142.991,102.537c-3.933-2.61-8.514-3.968-12.943-5.459c-1.067-0.373-2.157-0.766-3.133-1.346 c-0.872-0.519-1.199-1.574-1.399-2.506c-0.089-0.494-0.146-0.996-0.171-1.494c3.212-4.394,5.34-11.563,5.34-17.443 c0-9.176-5.183-11.732-11.577-11.732c-2.435,0-4.686,0.373-6.553,1.336c4.24,3.258,6.49,8.592,6.49,15.777 c0,8.282-2.78,17.817-7.005,24.28c0.014,0.072,0.025,0.146,0.037,0.218c0.11,0.505,0.2,0.764,0.258,0.897 c0.926,0.512,2.035,0.919,3.272,1.356l1.853,0.614c5.485,1.822,11.155,4.026,16.262,7.417c0.826,0.54,1.604,0.628,2.336,2.236 h12.186c0.045-3.216-0.277-5.544-1.063-7.928C146.419,106.472,145.033,103.885,142.991,102.537z" />
            <path d="M131.589,117.369c-5.241-3.477-11.351-5.309-17.254-7.293c-1.429-0.501-2.874-1.03-4.178-1.806 c-1.164-0.691-1.598-2.099-1.869-3.344c-0.117-0.659-0.192-1.331-0.228-1.997c4.28-5.855,7.12-15.416,7.12-23.254 c0-12.235-6.91-15.646-15.438-15.646s-15.438,3.407-15.438,15.641c0,8.12,3.043,18.083,7.585,23.868 c-0.041,0.455-0.098,0.911-0.177,1.368c-0.273,1.238-0.707,2.637-1.869,3.323c-1.305,0.773-2.751,1.265-4.178,1.766 c-5.905,1.986-12.015,3.739-17.253,7.22c-2.727,1.793-4.574,5.258-5.593,8.314c-1.048,3.173-1.478,7.242-1.414,10.46H100h38.592 c0.066-3.218-0.365-7.287-1.413-10.46C136.159,122.47,134.313,119.166,131.589,117.369z" />
</svg>