<svg xmlns="http://www.w3.org/2000/svg" xmlns:xlink="http://www.w3.org/1999/xlink" version="1.1" x="0" y="0" width="600" height="200" viewBox="0 0 600 200" enable-background="new 0 0 600 200" xml:space="preserve">
  <path d="M120.78 171.94c-2.79-2.05-3.08-5.13-3.08-5.13l-1.04-6.68H83.34l-1.05 6.68c0 0-0.29 3.08-3.08 5.13 -2.79 2.05-4.98 3.81-2.79 4.11 2.12 0.28 22.1 0.02 23.57 0 1.48 0.02 21.45 0.28 23.57 0C125.77 175.74 123.57 173.99 120.78 171.94z"/>
  <path d="M62.47 118.56c8.9-0.07 10.01-2.21 12.91-11.15 5.35-14.1 29.45 3.69 14.51 9.86C74.96 123.45 53.57 118.62 62.47 118.56z"/>
  <path d="M153.73 25.63c-4.32-3.48-11.47-1.77-15.98 3.83L92.09 94.33c-4.51 5.59-4.49 4.52-0.17 8 4.32 3.48 3.28 3.73 7.79-1.86l53.68-58.41C157.89 36.46 158.05 29.11 153.73 25.63zM141.99 33.39c0 0-0.67-0.78-2.89-2.56 3.34-5.45 9.89-4.45 9.89-4.45C142.77 30.06 141.99 33.39 141.99 33.39z"/>
  <path d="M173.98 47.55h-20.08l-8.87 9.65h25.73v77.19H29.24V57.2h82.33l6.8-9.65H26.02c-3.55 0-6.43 2.88-6.43 6.43v93.28c0 3.55 2.88 6.43 6.43 6.43h147.96c3.55 0 6.43-2.88 6.43-6.43V53.98C180.41 50.43 177.53 47.55 173.98 47.55z"/>
  <path d="M286.76 113.61v9.82l-34.92-15.14v-8.4l34.92-15.13v9.89l-24.33 9.38L286.76 113.61z"/>
  <path d="M308.35 84.55l-9.72 40.03c-0.32 1.32-0.6 2.36-0.85 3.12 -0.24 0.77-0.61 1.36-1.11 1.79 -0.5 0.43-1.22 0.64-2.17 0.64 -2.36 0-3.54-1.02-3.54-3.05 0-0.53 0.23-1.86 0.69-3.99l9.69-40.03c0.51-2.13 1-3.59 1.46-4.37 0.46-0.79 1.36-1.18 2.71-1.18 1.16 0 2.04 0.28 2.65 0.83 0.61 0.56 0.92 1.32 0.92 2.29C309.08 81.35 308.83 82.65 308.35 84.55z"/>
  <path d="M348.17 108.29L313.25 123.5v-9.82l24.4-9.58 -24.4-9.44v-9.75l34.92 15.07V108.29z"/>
  <path d="M370.64 28.36H229.36c-5.32 0-9.63 4.32-9.63 9.63v122.02c0 5.32 4.31 9.63 9.63 9.63h141.29c5.32 0 9.63-4.32 9.63-9.63V37.99C380.28 32.67 375.97 28.36 370.64 28.36zM346.56 34.78c3.54 0 6.42 2.88 6.42 6.42 0 3.54-2.88 6.42-6.42 6.42 -3.54 0-6.42-2.88-6.42-6.42C340.14 37.66 343.02 34.78 346.56 34.78zM328.9 34.78c3.54 0 6.42 2.88 6.42 6.42 0 3.54-2.88 6.42-6.42 6.42 -3.54 0-6.42-2.88-6.42-6.42C322.48 37.66 325.36 34.78 328.9 34.78zM370.64 160.01H229.36V54.05h141.29V160.01zM364.22 47.62c-3.54 0-6.42-2.88-6.42-6.42 0-3.54 2.88-6.42 6.42-6.42 3.54 0 6.42 2.88 6.42 6.42C370.64 44.74 367.76 47.62 364.22 47.62z"/>
  <path d="M500 18.59c-44.34 0-80.41 36.07-80.41 80.41 0 44.34 36.07 80.41 80.41 80.41 44.34 0 80.41-36.07 80.41-80.41C580.41 54.66 544.34 18.59 500 18.59zM504.83 169.58v-12.68h-9.65v12.69c-35.18-2.38-63.37-30.58-65.75-65.75h12.68v-9.65h-12.68c2.38-35.18 30.57-63.37 65.75-65.75v12.68h9.65V28.42c35.18 2.38 63.37 30.58 65.76 65.75h-12.68v9.65h12.69C568.2 139 540 167.2 504.83 169.58z"/>
  <path d="M466.29 114.31c4.98-3.3 10.5-5.29 15.85-7.05 0.77-0.25 1.54-0.59 2.3-0.84l0.16-0.1c1.13-0.4 2.2-0.79 3.07-1.27 0.04-0.1 0.1-0.26 0.17-0.52 -4.4-6.42-7.39-16.35-7.39-24.86 0-7.21 2.27-12.56 6.54-15.82 -1.85-0.94-4.08-1.29-6.48-1.29 -6.4 0-11.58 2.55-11.58 11.73 0 6.09 2.28 13.56 5.69 17.9 -0.03 0.34-0.07 0.69-0.14 1.03 -0.2 0.93-0.53 1.98-1.4 2.5 -0.97 0.58-2.06 0.95-3.13 1.32 -4.43 1.49-9.01 2.81-12.94 5.42 -2.04 1.35-3.43 4.02-4.19 6.31 -0.79 2.38-1.11 4.71-1.06 7.93h12.08C464.6 115.08 465.42 114.88 466.29 114.31z"/>
  <path d="M542.99 102.54c-3.93-2.61-8.51-3.97-12.94-5.46 -1.07-0.37-2.16-0.77-3.13-1.35 -0.87-0.52-1.2-1.57-1.4-2.51 -0.09-0.49-0.15-1-0.17-1.49 3.21-4.39 5.34-11.56 5.34-17.44 0-9.18-5.18-11.73-11.58-11.73 -2.43 0-4.69 0.37-6.55 1.34 4.24 3.26 6.49 8.59 6.49 15.78 0 8.28-2.78 17.82-7 24.28 0.01 0.07 0.03 0.15 0.04 0.22 0.11 0.51 0.2 0.76 0.26 0.9 0.93 0.51 2.04 0.92 3.27 1.36l1.85 0.61c5.49 1.82 11.16 4.03 16.26 7.42 0.83 0.54 1.6 0.63 2.34 2.24h12.19c0.05-3.22-0.28-5.54-1.06-7.93C546.42 106.47 545.03 103.89 542.99 102.54z"/>
  <path d="M531.59 117.37c-5.24-3.48-11.35-5.31-17.25-7.29 -1.43-0.5-2.87-1.03-4.18-1.81 -1.16-0.69-1.6-2.1-1.87-3.34 -0.12-0.66-0.19-1.33-0.23-2 4.28-5.85 7.12-15.42 7.12-23.25 0-12.23-6.91-15.65-15.44-15.65 -8.53 0-15.44 3.41-15.44 15.64 0 8.12 3.04 18.08 7.59 23.87 -0.04 0.46-0.1 0.91-0.18 1.37 -0.27 1.24-0.71 2.64-1.87 3.32 -1.3 0.77-2.75 1.26-4.18 1.77 -5.9 1.99-12.01 3.74-17.25 7.22 -2.73 1.79-4.57 5.26-5.59 8.31 -1.05 3.17-1.48 7.24-1.41 10.46H500h38.59c0.07-3.22-0.36-7.29-1.41-10.46C536.16 122.47 534.31 119.17 531.59 117.37z"/>
</svg>